<svg id="圖層_1" data-name="圖層 1" xmlns="http://www.w3.org/2000/svg" xmlns:xlink="http://www.w3.org/1999/xlink" viewBox="0 0 64.7 54.34"><defs><style>.cls-1{fill:#757584;stroke-width:0.28px;}.cls-1,.cls-5{stroke:#000;stroke-miterlimit:10;}.cls-2{isolation:isolate;}.cls-3{fill:#f46d11;}.cls-4{fill:#f35805;}.cls-5{fill:none;stroke-width:0.05px;}.cls-6{fill:url(#未命名漸層_236);}.cls-7{fill:url(#未命名漸層_236-2);}.cls-8{fill:url(#未命名漸層_88);}.cls-9{fill:#ea7711;}.cls-10{fill:#a60505;}.cls-11{fill:#ab0707;}.cls-12{fill:#870000;}.cls-13{fill:#b91212;}.cls-14{fill:#530000;}.cls-15{fill:#630000;}.cls-16{fill:#4a0000;}.cls-17{fill:#820101;}.cls-18{fill:#400000;}.cls-19{fill:#5f0000;}.cls-20{fill:#850101;}.cls-21{fill:#ab0101;}.cls-22{fill:url(#未命名漸層_77);}</style><linearGradient id="未命名漸層_236" x1="22.52" y1="32.27" x2="25.06" y2="32.27" gradientUnits="userSpaceOnUse"><stop offset="0" stop-color="#00bd00"/><stop offset="0.08" stop-color="#00c000"/><stop offset="1" stop-color="#00df00"/></linearGradient><linearGradient id="未命名漸層_236-2" x1="40.58" y1="32.27" x2="43.12" y2="32.27" xlink:href="#未命名漸層_236"/><linearGradient id="未命名漸層_88" x1="40.01" y1="29.75" x2="42.55" y2="29.75" gradientUnits="userSpaceOnUse"><stop offset="0"/><stop offset="1"/></linearGradient><radialGradient id="未命名漸層_77" cx="26.28" cy="20.63" r="1.93" gradientTransform="translate(5.88 10.62) scale(1.06 0.62)" gradientUnits="userSpaceOnUse"><stop offset="0" stop-color="#7f7f7f"/><stop offset="0.17" stop-color="#4a4a4a"/><stop offset="0.35" stop-color="#151515"/><stop offset="0.44"/><stop offset="0.49" stop-color="#161616"/><stop offset="0.55" stop-color="#272727"/><stop offset="0.62" stop-color="#323232"/><stop offset="0.72" stop-color="#393939"/><stop offset="1" stop-color="#3b3b3b"/></radialGradient></defs><title>ICON56</title><ellipse class="cls-1" cx="27.81" cy="33.25" rx="3.47" ry="3.3"/><ellipse class="cls-1" cx="38.68" cy="33.25" rx="3.47" ry="3.3"/><g class="cls-2"><path class="cls-3" d="M45.6,25.1v6.84c0,2.22-2.51,4-5.57,4V29.14C43.09,29.14,45.6,27.32,45.6,25.1Z"/><rect class="cls-3" x="26.73" y="29.14" width="13.3" height="6.83"/><path class="cls-3" d="M26.73,29.14V36c-3.06,0-5.57-1.81-5.57-4V25.1C21.16,27.32,23.67,29.14,26.73,29.14Z"/><path class="cls-3" d="M40,20.39c3.06,0,5.57,1.82,5.57,4v.68c0,2.22-2.51,4-5.57,4H26.73c-3.06,0-5.57-1.82-5.57-4v-.68c0-2.21,2.51-4,5.57-4Z"/></g><g class="cls-2"><path class="cls-4" d="M45.6,26.32V27c0,2.14-2.69,3.89-6,3.89v-.65C42.91,30.21,45.6,28.46,45.6,26.32Z"/><rect class="cls-4" x="27.15" y="30.21" width="12.47" height="0.65"/><path class="cls-4" d="M27.15,30.21v.65c-3.3,0-6-1.75-6-3.89v-.65C21.16,28.46,23.85,30.21,27.15,30.21Z"/><path class="cls-4" d="M39.62,21.13c3.29,0,6,1.75,6,3.89v1.3c0,2.14-2.69,3.89-6,3.89H27.15c-3.3,0-6-1.75-6-3.89V25c0-2.14,2.69-3.89,6-3.89Z"/></g><g class="cls-2"><rect x="27.15" y="19.29" width="12.47" height="0.65"/><path d="M45.51,23.12v.66c0-2.12-2.64-3.84-5.89-3.84v-.65C42.87,19.29,45.51,21,45.51,23.12Z"/><path d="M27.15,19.29v.65c-3.25,0-5.9,1.72-5.9,3.84v-.66C21.25,21,23.9,19.29,27.15,19.29Z"/><path class="cls-3" d="M27.15,28.25v.65c-3.25,0-5.9-1.72-5.9-3.83v-.66C21.25,26.53,23.9,28.25,27.15,28.25Z"/><path class="cls-3" d="M39.62,19.29c3.25,0,5.89,1.72,5.89,3.83v1.29c0,2.12-2.64,3.84-5.89,3.84H27.15c-3.25,0-5.9-1.72-5.9-3.84V23.12c0-2.11,2.65-3.83,5.9-3.83Z"/><rect class="cls-3" x="27.15" y="28.25" width="12.47" height="0.65"/><path class="cls-3" d="M45.51,24.41v.66c0,2.11-2.64,3.83-5.89,3.83v-.65C42.87,28.25,45.51,26.53,45.51,24.41Z"/><rect x="27.15" y="28.37" width="12.47" height="0.65"/><path d="M39.62,19.17c3.35,0,6.07,1.77,6.07,3.95v1.29c0,2.18-2.72,4-6.07,4H27.15c-3.35,0-6.08-1.78-6.08-4V23.12c0-2.18,2.73-3.95,6.08-3.95Zm5.89,5.24V23.12c0-2.11-2.64-3.83-5.89-3.83H27.15c-3.25,0-5.9,1.72-5.9,3.83v1.29c0,2.12,2.65,3.84,5.9,3.84H39.62c3.25,0,5.89-1.72,5.89-3.84"/><path d="M45.69,24.41v.66C45.69,27.25,43,29,39.62,29v-.65C43,28.37,45.69,26.59,45.69,24.41Z"/><path d="M27.15,28.37V29c-3.35,0-6.08-1.77-6.08-3.95v-.66C21.07,26.59,23.8,28.37,27.15,28.37Z"/></g><line class="cls-5" x1="26.91" y1="31.8" x2="26.91" y2="35.94"/><line class="cls-5" x1="39.03" y1="31.8" x2="39.03" y2="35.94"/><rect class="cls-6" x="22.52" y="31.99" width="2.54" height="0.57" rx="0.28"/><rect class="cls-7" x="40.58" y="31.99" width="2.54" height="0.57" rx="0.28"/><rect class="cls-8" x="40.01" y="29.47" width="2.54" height="0.57" rx="0.16"/><path class="cls-9" d="M44.79,32.34c-.21,0-.26,0-.24.2s-.07.32.06.37a2.24,2.24,0,0,0,.64,0c.1,0,.08-.09.08-.14,0-.75,0-1.49,0-2.24,0-.22-.09-.38-.41-.32a2.16,2.16,0,0,1-.36,0h0v.84c.13,0,.25-.1.36,0a.23.23,0,0,1,.12.1.14.14,0,0,1,0,.06,3.62,3.62,0,0,1,0,.93s0,.07,0,.11-.12.15-.23.06Z"/><path class="cls-9" d="M44.56,33.13a1.78,1.78,0,0,0,.69,0c.06,0,.07,0,.07-.08s0-.1,0-.1h-.68c-.06,0,0,.08,0,.13Z"/><path class="cls-9" d="M44.44,32.93c.07,0,.05-.08.05-.12,0-.75,0-1.5,0-2.26,0,0,0-.1-.05-.12v2.5"/><path d="M44.92,31.08a.15.15,0,0,0-.12,0l-.3,0v1.35l.09-.06a.15.15,0,0,1,.07,0s.1,0,.13,0a.17.17,0,0,0,.07,0,.08.08,0,0,0,0,0l.11-.09s-.11,0-.11-.06,0-.29,0-.29v-.85Z"/><path class="cls-10" d="M45.09,31.12a.11.11,0,0,0-.17,0v.65c.16,0,.16-.12.17-.22S45.08,31.25,45.09,31.12Z"/><path class="cls-11" d="M44.66,31.68v-.53c-.15.17-.09.35-.1.53S44.63,31.71,44.66,31.68Z"/><path class="cls-12" d="M45.09,31.12c-.11.1-.05.22-.06.33a.31.31,0,0,1-.11.28v.2c.17,0,.17-.11.2-.2a3,3,0,0,0,0-.6Z"/><path class="cls-13" d="M44.74,31.23v.43c.15-.13.1-.28.1-.43S44.78,31.2,44.74,31.23Z"/><path class="cls-14" d="M44.79,32.34c.11-.11.05-.24.05-.36s-.06,0-.1,0a.57.57,0,0,0,0,.36Z"/><path class="cls-15" d="M45.08,31.78c-.06,0-.07.12-.16.15v.15c.1.06.15,0,.19-.06S45.15,31.85,45.08,31.78Z"/><path class="cls-16" d="M45.08,32l-.16,0c0,.08-.05.18.1.2l.07-.06A.14.14,0,0,0,45.08,32Z"/><path class="cls-17" d="M44.74,32h.1c0-.08,0-.16,0-.24C44.7,31.81,44.75,31.9,44.74,32Z"/><path class="cls-18" d="M44.56,32.08c0,.06-.06.17.07.17s0-.11,0-.17A.08.08,0,0,0,44.56,32.08Z"/><path class="cls-19" d="M44.56,32.08h.11v-.2a.08.08,0,0,0-.11,0Z"/><path class="cls-20" d="M44.56,31.88h.11v-.2h-.1Z"/><path class="cls-21" d="M44.74,31.23h.1c0-.05,0-.13-.05-.13S44.74,31.18,44.74,31.23Z"/><path d="M45.08,32v.19a2.12,2.12,0,0,0,0-1.09c0,.22,0,.43,0,.65Z"/><ellipse cx="30.39" cy="21.02" rx="0.91" ry="0.25"/><ellipse cx="36.68" cy="21.02" rx="0.91" ry="0.25"/><ellipse cx="30.39" cy="26.23" rx="0.91" ry="0.25"/><ellipse cx="36.68" cy="26.02" rx="0.91" ry="0.25"/><ellipse cx="40.82" cy="24.6" rx="0.91" ry="0.25"/><ellipse cx="40.37" cy="22.69" rx="0.91" ry="0.25"/><ellipse cx="26.78" cy="24.8" rx="0.91" ry="0.25"/><ellipse cx="26.78" cy="22.69" rx="0.91" ry="0.25"/><ellipse class="cls-22" cx="33.72" cy="23.32" rx="2.05" ry="1.19"/></svg>